<?xml version="1.0" encoding="utf-8"?>
<!-- Generator: Adobe Illustrator 19.2.1, SVG Export Plug-In . SVG Version: 6.00 Build 0)  -->
<svg version="1.1" id="layer" xmlns="http://www.w3.org/2000/svg" xmlns:xlink="http://www.w3.org/1999/xlink" x="0px" y="0px"
	 viewBox="0 0 652 652" style="enable-background:new 0 0 652 652;" xml:space="preserve">
<style type="text/css">
	.st0{fill:#F7961D;}
	.st1{fill:#2D67B0;}
</style>
<g>
	<g>
		<path class="st0" d="M131.2,193.8c17.1-2.3,34.6-0.9,51.2,3.7c33.5,9.9,63.7,29.5,88.3,54.1c3.2,2.7,4.4,7.7,1.9,11.2
			c-2.6,3.9-8.9,4-12,0.5c-14-13.8-29.8-25.9-47-35.7c-22.3-12.7-48-21-73.9-19c-24.6,2-47.9,12-68.5,25.3
			c-12.9,8.5-25.1,18-35.9,29c-2.8,3.3-8.5,4.2-11.7,1c-3.7-3.1-2.9-9.1,0.6-12c13.9-14,29.6-26.1,46.6-36
			c10.8-6.4,22.3-11.8,34.3-15.7C113.5,196.9,122.3,195,131.2,193.8"/>
	</g>
	<g>
		<path class="st1" d="M99.9,240.5c7.6-3.2,16.3-2.9,24.3-1.4c-0.6,4.2-1,8.5-1.7,12.7c-4.9-1.1-10.5-2.2-15.1,0.3
			c-4.2,2.4-5,7.6-5.2,12.1c-0.2,6.9,0,13.8-0.1,20.7c5.7,0,11.3,0,17,0c0,4.2,0,8.4,0,12.6c-5.7,0-11.4,0-17.1,0v63.2H87.6
			c0-21.1,0-42.1,0-63.2c-5.5,0-11,0-16.4,0c0-4.2,0-8.3,0-12.5c5.5,0,11,0,16.4,0c0.4-10.4-1.2-21,1.7-31.2
			C90.7,248.2,94.3,242.8,99.9,240.5"/>
	</g>
	<g>
		<path class="st1" d="M132.9,360.7c0-40.2,0-80.5,0-120.8c4.8,0,9.6,0,14.4,0c0,40.2,0,80.5,0,120.7H132.9z"/>
	</g>
	<g>
		<path class="st1" d="M331.3,256.8c4.4-1.8,10,0.7,11.1,5.5c1.9,6.2-5.5,12.3-11.2,9.3C324.8,269.3,325,259.1,331.3,256.8"/>
	</g>
	<g>
		<path class="st1" d="M539.7,285.6c9.4-3.6,20.3-3.4,29.5,0.7c4.4,1.8,7.7,5.4,10.4,9.1c-3.7,2.9-7.5,5.8-11.3,8.6
			c-2.8-2.9-6-5.8-10.1-6.8c-5.1-1.2-11-0.9-15.4,2.3c-3.4,2.5-3.4,8-0.4,10.8c4.2,4.1,10.1,5.1,15.6,6.1c6.7,1.5,13.9,3.4,18.7,8.6
			c5.1,5.3,5.8,13.4,4,20.3c-2.2,7.9-9.4,13.6-17.2,15.7c-9,2.4-18.7,2.3-27.5-0.6c-6-1.9-10.8-6.3-14.4-11.3c3.7-2.9,7.3-6,11-9
			c4.3,4,9.1,8.1,15.2,8.8c5.3,0.5,11.2-0.1,15.6-3.5c3.3-2.5,3.9-7.7,1.1-10.8c-3-3.4-7.7-4.7-12-5.7c-7.8-1.8-16.3-3.2-22.3-8.8
			c-5.2-5-6.1-12.9-4.5-19.6C527.3,293.5,533.1,288.2,539.7,285.6"/>
	</g>
	<g>
		<path class="st1" d="M239.8,285c6.2-0.1,12.5,0,18.7,0c6,8.9,12.1,17.8,18.2,26.7c6-8.9,12-17.8,17.9-26.7c5.9,0,11.7-0.1,17.6,0
			c-8.6,11.7-17.2,23.5-25.8,35.2c10.1,13.5,20.4,26.9,30.6,40.4c-6.2,0-12.5,0-18.7,0c-7.4-10.5-14.7-21.2-22.3-31.6
			c-7.5,10.5-14.8,21.1-22.2,31.6c-6,0-11.9,0-17.9,0c10.3-13.5,20.5-26.9,30.7-40.5C257.6,308.5,248.7,296.8,239.8,285"/>
	</g>
	<g>
		<path class="st1" d="M327.5,285h14.4v80.5c-0.1,6.7,0.5,13.7-1.8,20.2c-2.1,6-7.3,11-13.5,12.5c-5.6,1.4-11.5,1-17-0.4
			c0.3-4.5,1-8.9,1.5-13.4c4,1,8.7,2,12.3-0.6c3.6-2.8,4-7.8,4.2-12V285z"/>
	</g>
	<g>
		<path class="st1" d="M189.5,328.1h48.7c0.2-7.1,0.1-14.4-2.4-21.2c-3-9.5-10.3-17.7-19.7-21.3c-6.2-2.6-13-2.7-19.6-2.2
			c-10.3,1.1-20.2,6.5-26.3,14.9c-8.3,11.2-9.9,26.5-5.4,39.6c2.7,7.9,8.1,15,15.4,19.3c9.3,5.7,20.9,6.6,31.4,4.5
			c9.2-1.8,17.7-7.1,23.3-14.6c-3.6-2.8-7.3-5.5-10.9-8.3c-4.3,4.8-9.4,9.5-15.9,10.8c-7.5,1.4-15.6-0.4-21.7-4.9
			c-5.1-3.8-8.5-9.7-8.8-16.1C181.5,327.8,185.5,328.1,189.5,328.1 M177.5,316.4c0.7-5.7,3.1-11.2,7.2-15.2c8-7.9,22.1-8.9,31-1.8
			c5.1,4.1,6.8,10.8,7.3,17C207.9,316.5,192.7,316.6,177.5,316.4"/>
	</g>
	<g>
		<path class="st1" d="M431.2,315.7c-2.2-12.6-10.9-23.8-22.6-29c-7.4-3.6-16-4.3-24.1-3.1c-13,2.1-24.6,11-29.8,23.1
			c-3.2,6.7-3.8,14.3-3.1,21.6c1.5,12.2,9.2,23.5,20.1,29.3c8.3,4.7,18.2,6.1,27.5,4.4c11.4-2.1,21.9-9.4,27.5-19.6
			C431.4,334.4,432.8,324.8,431.2,315.7 M411.5,339.5c-8.6,12.2-28.8,12.9-38.5,1.6c-6.6-7.7-7.7-19-4.6-28.4
			c2.4-7.6,9-13.8,16.9-15.4c8.7-2,18.6,0.1,24.7,6.9C418.2,313.9,418.5,329.2,411.5,339.5"/>
	</g>
	<g>
		<path class="st1" d="M519,314.8c-1.6-9.9-7-19.5-15.4-25.2c-6.6-4.5-14.6-6.8-22.6-6.5c-10.1-0.1-20.5,4.4-26.3,12.8
			c0-18.6,0-37.3,0-55.9c-4.8,0-9.6,0-14.3,0c0,40.3,0,80.5,0,120.8c4.8,0,9.6,0,14.4,0c0-3.6,0-7.3,0-10.9
			c7.3,10,20.5,14.2,32.5,12.4c9.8-1.2,19.2-6.5,24.9-14.6C518.9,338.4,520.8,326.1,519,314.8 M499.4,339.4
			c-6.8,9.8-21,12.2-31.4,7.1c-6.3-2.9-10.7-9-12.4-15.6c-1.8-7.1-1.3-14.9,2-21.6c2.8-5.6,7.9-9.9,13.9-11.7c8.3-2.4,18-1,24.6,4.9
			C506,311.8,506.8,328.4,499.4,339.4"/>
	</g>
	<g>
		<path class="st0" d="M372.1,378.5c3.4-2.1,7.8-0.8,10.4,1.9c10.2,10.4,21.7,19.5,33.7,27.6c16.6,10.8,34.7,19.8,54.2,24.2
			c16.3,3.8,33.4,3.7,49.6-0.2c14.3-3.2,27.8-9.1,40.5-16.2c16.8-9.5,32.4-21.3,46.1-34.9c2.1-2,4.7-3.8,7.7-3.4
			c3.8,0.2,7.1,3.7,6.8,7.6c0.2,3.5-2.6,6-4.8,8.3c-22.3,21.6-48.7,39.5-78.2,49.6c-17.1,5.9-35.5,8.4-53.6,7
			c-28.8-2.3-55.9-14.6-79.6-30.6c-12.3-8.5-24-18-34.3-28.9C367.2,387.2,367.8,380.8,372.1,378.5"/>
	</g>
</g>
</svg>
